<?xml version="1.0" standalone="no"?>
<!DOCTYPE svg PUBLIC "-//W3C//DTD SVG 20010904//EN"
 "http://www.w3.org/TR/2001/REC-SVG-20010904/DTD/svg10.dtd">
<svg version="1.0" xmlns="http://www.w3.org/2000/svg"
 width="1035.000000pt" height="790.000000pt" viewBox="0 0 1035.000000 790.000000"
 preserveAspectRatio="xMidYMid meet">

<g transform="translate(0.000000,790.000000) scale(0.100000,-0.100000)"
fill="#000000" stroke="none">
<path d="M510 5338 l0 -2253 -74 -145 c-73 -144 -133 -307 -161 -441 -24 -112
-21 -414 5 -515 42 -164 104 -287 202 -402 l28 -33 0 -579 0 -580 2030 0 2030
0 0 650 c0 358 3 650 8 650 4 0 29 -51 56 -113 27 -61 62 -139 77 -172 56
-119 181 -402 211 -475 17 -41 34 -79 38 -85 13 -18 179 -399 186 -428 9 -40
27 -33 42 16 7 23 45 114 84 202 114 258 327 732 374 833 24 51 44 95 44 98 0
2 15 34 33 71 l32 68 3 -657 2 -658 2030 0 2030 0 0 1291 0 1291 66 72 c74 78
122 149 163 235 25 54 26 63 26 231 0 174 -1 175 -33 256 -38 94 -106 178
-176 215 l-46 24 0 174 0 173 25 20 c39 30 55 71 55 137 0 50 -6 72 -40 138
l-41 78 -6 395 c-3 217 -10 405 -14 418 -8 21 -12 22 -156 22 -82 0 -199 3
-260 7 l-113 6 0 1009 0 1008 -365 0 -365 0 0 -1320 0 -1320 -50 0 -50 0 0
299 0 299 -22 6 c-13 3 -93 6 -178 6 -85 0 -212 3 -282 7 l-128 6 0 194 0 193
295 0 295 0 4 23 c3 12 7 149 10 304 5 248 3 282 -10 287 -9 3 -88 6 -177 6
-89 0 -219 3 -289 7 l-128 6 0 194 0 193 295 0 295 0 4 23 c3 12 7 149 10 305
l5 282 -914 0 c-733 0 -915 -3 -915 -13 0 -18 -53 -432 -95 -747 -20 -146 -42
-319 -50 -385 -7 -66 -14 -122 -14 -124 -1 -3 -6 0 -11 5 -6 6 -19 107 -30
225 -39 432 -72 827 -77 932 l-6 107 -329 0 c-181 0 -327 -3 -325 -7 3 -5 14
-82 26 -173 12 -91 30 -228 41 -305 10 -77 35 -259 55 -405 97 -723 131 -974
200 -1460 19 -135 35 -255 35 -267 0 -23 -2 -23 -118 -23 -116 0 -119 1 -144
28 -60 62 -61 72 -68 502 -6 364 -9 401 -28 466 -26 86 -82 175 -145 230 -26
23 -47 47 -47 54 0 6 19 34 43 61 53 61 111 172 134 259 27 97 26 472 -1 585
-40 170 -137 302 -275 374 -147 77 -139 76 -668 79 l-473 2 -1 -1182 c0 -694
-4 -1175 -9 -1163 -5 11 -25 106 -45 210 -20 105 -45 231 -55 280 -11 50 -40
196 -65 325 -24 129 -61 318 -81 420 -20 102 -48 250 -64 330 -15 80 -56 288
-90 463 l-63 317 -363 0 -364 0 0 -32 c0 -30 -25 -158 -125 -653 -19 -93 -60
-298 -90 -455 -104 -534 -137 -705 -162 -830 -14 -69 -30 -147 -34 -175 -31
-177 -53 -281 -60 -289 -5 -6 -9 524 -9 1212 l0 1222 -375 0 c-357 0 -375 -1
-375 -18 0 -10 -49 -216 -109 -458 -60 -241 -115 -466 -123 -499 -8 -33 -18
-59 -23 -57 -11 3 -30 70 -45 157 -5 33 -23 119 -39 190 -53 229 -141 646
-141 666 0 18 -12 19 -410 19 l-410 0 0 -2252z m6700 802 l0 -1190 -200 0
c-110 0 -200 3 -200 8 0 12 37 241 53 332 9 47 48 283 87 525 77 482 109 677
169 1040 22 132 47 287 56 345 17 113 21 130 30 130 3 0 5 -535 5 -1190z
m-2220 788 c34 -36 58 -100 66 -174 8 -67 -17 -144 -63 -195 -62 -68 -63 -65
-63 181 0 244 2 252 60 188z m-1556 -558 c9 -69 21 -156 26 -195 6 -38 17
-118 25 -176 22 -153 29 -139 -75 -139 l-90 0 0 38 c0 20 16 145 35 277 19
132 35 257 35 277 0 20 3 44 6 53 12 30 21 -3 38 -135z m1554 -434 c15 -8 39
-27 54 -43 55 -58 58 -77 64 -421 5 -292 14 -443 30 -499 6 -23 5 -23 -100
-23 l-106 0 0 500 c0 548 -4 518 58 486z m-3814 -231 c55 -225 64 -260 76
-300 27 -88 110 -420 110 -436 0 -18 -10 -19 -125 -19 l-125 0 0 482 c0 265 4
478 8 473 5 -6 30 -95 56 -200z m786 -280 l0 -475 -125 0 c-146 0 -137 -11
-99 130 39 145 174 666 195 755 12 52 17 65 24 65 3 0 5 -214 5 -475z m1614
-112 c3 -10 12 -78 21 -151 8 -73 18 -150 21 -172 l7 -40 -212 0 c-194 0 -211
1 -211 18 0 23 40 334 45 350 3 9 45 12 164 12 143 0 160 -2 165 -17z m6060
-522 c138 -68 242 -240 202 -335 -19 -45 -40 -58 -169 -100 -150 -49 -260
-108 -329 -177 -70 -69 -77 -107 -30 -157 40 -43 85 -52 282 -58 209 -7 254
-20 323 -93 75 -80 123 -252 115 -406 -5 -88 -42 -191 -100 -282 -109 -168
-405 -382 -685 -496 -135 -55 -437 -140 -498 -141 -105 -2 -160 51 -204 198
-27 86 -37 226 -22 282 29 107 87 147 251 169 120 17 200 45 385 135 143 70
216 137 215 202 -1 33 -19 53 -61 67 -40 13 -220 16 -374 5 -112 -7 -264 8
-326 32 -74 30 -137 130 -154 247 -7 47 -18 60 -28 33 -3 -7 -29 -25 -58 -40
-41 -20 -67 -26 -118 -26 -122 1 -175 39 -317 229 -9 11 -183 -103 -260 -171
-218 -191 -320 -407 -274 -577 14 -54 64 -109 119 -134 105 -46 309 24 481
166 102 84 167 117 233 117 42 0 53 -5 77 -30 58 -62 66 -243 15 -345 -45 -91
-95 -139 -285 -270 -183 -127 -390 -192 -647 -202 -202 -9 -312 22 -477 132
-87 57 -223 190 -251 245 -9 18 -20 29 -23 25 -4 -4 -7 -82 -7 -173 -1 -147
-3 -172 -21 -212 -27 -58 -36 -66 -173 -144 -94 -54 -123 -66 -159 -66 -59 0
-80 14 -105 68 -18 42 -21 75 -28 307 -10 330 -47 765 -84 984 -13 75 -24 111
-26 85 0 -5 -2 -18 -5 -29 -10 -53 -45 -391 -58 -570 -14 -178 -19 -274 -30
-506 -4 -81 -25 -120 -86 -160 -62 -41 -141 -62 -235 -63 -91 -1 -136 14 -162
53 -16 23 -18 57 -21 344 -2 174 -7 317 -12 317 -12 0 -54 -75 -153 -275 -169
-342 -211 -394 -352 -436 -130 -39 -228 -26 -271 38 -17 25 -20 55 -25 298 -6
256 -15 335 -39 335 -4 0 -13 -12 -18 -27 -6 -16 -22 -59 -37 -98 -55 -147
-139 -428 -186 -622 -71 -291 -88 -323 -176 -323 -37 0 -223 36 -289 55 -18 6
-22 -1 -37 -52 -30 -108 -148 -278 -260 -376 -152 -132 -297 -208 -469 -244
-111 -23 -419 -24 -494 -2 -76 22 -187 90 -289 174 -50 41 -92 75 -95 75 -3 0
-3 -28 -2 -62 6 -105 -21 -156 -108 -206 -19 -11 -73 -42 -120 -69 -109 -64
-196 -98 -336 -133 -164 -41 -281 -53 -462 -47 -169 5 -276 28 -382 82 -60 30
-207 152 -274 226 -330 365 -326 918 12 1484 31 53 195 282 211 295 3 3 26 30
51 60 133 165 299 326 464 451 165 124 440 283 535 309 72 19 156 14 201 -11
57 -32 83 -76 140 -239 168 -477 144 -705 -92 -847 -68 -41 -132 -58 -183 -49
-52 10 -118 77 -165 168 -19 38 -41 68 -47 68 -18 0 -205 -182 -281 -274 -37
-45 -69 -83 -72 -86 -43 -42 -192 -270 -226 -346 -35 -79 -48 -181 -35 -269
18 -123 62 -199 145 -253 38 -25 49 -27 141 -26 115 2 204 14 354 50 119 29
182 53 328 126 82 41 102 56 107 77 11 47 27 126 32 151 3 14 14 66 26 115 11
50 28 126 38 170 46 206 147 443 240 566 116 155 309 318 482 409 155 81 265
112 393 112 164 -1 329 -55 428 -142 56 -50 134 -166 168 -249 13 -34 27 -61
30 -61 4 0 9 16 12 36 10 59 118 396 187 584 17 47 41 114 52 150 50 163 153
300 245 328 96 29 267 6 311 -40 44 -48 50 -70 93 -358 16 -113 41 -254 55
-314 13 -60 24 -111 24 -115 1 -13 34 39 85 134 47 88 85 167 190 400 58 129
76 162 111 203 76 89 190 126 370 120 94 -2 117 -7 159 -28 64 -33 107 -95
142 -209 15 -47 29 -77 31 -66 1 11 11 58 22 105 10 47 21 107 24 135 18 149
158 273 386 340 126 37 187 41 228 15 76 -47 85 -155 47 -520 -68 -658 -85
-833 -81 -837 2 -2 18 24 36 59 134 260 326 537 497 719 130 137 410 355 545
424 112 58 271 105 354 105 120 0 232 -82 303 -222 43 -85 51 -110 78 -238 9
-41 17 -76 17 -77 1 -1 67 62 146 140 262 258 561 457 765 511 11 2 50 3 88 2
51 -3 83 -11 131 -35z"/>
<path d="M3227 3155 c-106 -39 -292 -205 -349 -310 -33 -61 -75 -204 -90 -302
-25 -169 25 -270 144 -292 126 -23 272 51 381 194 91 119 128 243 129 430 1
137 -19 214 -67 262 -37 37 -80 42 -148 18z"/>
</g>
</svg>
